<?xml version="1.0" encoding="UTF-8"?>
<svg version="1.1" xmlns="http://www.w3.org/2000/svg" width="699" height="558">
<path d="M0 0 C48.51 0 97.02 0 147 0 C147 21.45 147 42.9 147 65 C141 66 141 66 131 66 C131 76.23 131 86.46 131 97 C128.64305461 98.1784727 127.21241172 98.13725868 124.58346558 98.15821838 C123.6551593 98.1680072 122.72685303 98.17779602 121.77041626 98.18788147 C120.74902557 98.19363693 119.72763489 98.1993924 118.67529297 98.20532227 C117.60210815 98.21522186 116.52892334 98.22512146 115.42321777 98.23532104 C111.86289707 98.26700158 108.30256301 98.29171938 104.7421875 98.31640625 C102.27881516 98.33697012 99.8154464 98.35796643 97.3520813 98.37937927 C90.85836679 98.43465853 84.36462012 98.48404196 77.87084961 98.53222656 C71.24850594 98.5823989 64.62620914 98.63810721 58.00390625 98.69335938 C45.00264418 98.80101253 32.00134146 98.90244156 19 99 C19 103.62 19 108.24 19 113 C13.78564074 114.30358981 8.35627251 114.55364396 3 115 C3 134.47 3 153.94 3 174 C7.95 174 12.9 174 18 174 C19 175 19 175 19.09765625 178.16015625 C19.08605469 179.44792969 19.07445312 180.73570312 19.0625 182.0625 C19.05347656 183.35285156 19.04445313 184.64320313 19.03515625 185.97265625 C19.02355469 186.97167969 19.01195312 187.97070312 19 189 C20.15844925 188.97454605 20.15844925 188.97454605 21.34030151 188.94857788 C28.60928263 188.7906597 35.87836542 188.64245313 43.14776421 188.50522423 C46.8852667 188.43432452 50.6226143 188.35963686 54.35986328 188.27636719 C57.96476224 188.19618455 61.56972974 188.12585438 65.17496109 188.06242752 C66.5521773 188.0364518 67.92933063 188.00689255 69.30639267 187.97373581 C71.23124214 187.92799451 73.15640433 187.89603481 75.08154297 187.86474609 C76.17852509 187.84253998 77.2755072 187.82033386 78.4057312 187.79745483 C81 188 81 188 83 190 C83.30675232 192.89967757 83.51173371 195.71783178 83.625 198.625 C83.68300781 199.82769531 83.68300781 199.82769531 83.7421875 201.0546875 C83.83653931 203.03607556 83.91936215 205.01800645 84 207 C79.97485579 208.7406029 76.59395517 209.11379042 72.26953125 209.0625 C71.28186768 209.05347656 70.2942041 209.04445312 69.27661133 209.03515625 C68.52532959 209.02355469 67.77404785 209.01195312 67 209 C67.00222061 209.57407089 67.00444122 210.14814178 67.00672913 210.73960876 C67.02878257 216.6925291 67.04390684 222.6454379 67.05493164 228.59838867 C67.05997317 230.82267732 67.06680623 233.04696263 67.07543945 235.27124023 C67.08751298 238.46078309 67.09322996 241.65028229 67.09765625 244.83984375 C67.10281754 245.84087631 67.10797882 246.84190887 67.11329651 247.87327576 C67.11337204 248.79415482 67.11344757 249.71503387 67.11352539 250.66381836 C67.115746 251.47878281 67.11796661 252.29374725 67.12025452 253.13340759 C67 255 67 255 66 256 C63.46950598 256.07313567 60.96695163 256.09247527 58.4375 256.0625 C57.37112305 256.05573242 57.37112305 256.05573242 56.28320312 256.04882812 C54.52209987 256.03700864 52.76103964 256.01907263 51 256 C51.03552979 256.93384521 51.07105957 257.86769043 51.10766602 258.82983398 C51.23661333 262.28299578 51.36097112 265.73625852 51.48217773 269.18969727 C51.53566434 270.68650938 51.5909987 272.18325663 51.64819336 273.67993164 C51.72991956 275.82684332 51.8050746 277.97389793 51.87890625 280.12109375 C51.9260376 281.4145874 51.97316895 282.70808105 52.02172852 284.04077148 C52 287 52 287 51 288 C49.43452952 288.09326716 47.86487228 288.11745582 46.29663086 288.11352539 C45.29566879 288.11344986 44.29470673 288.11337433 43.26341248 288.11329651 C42.1748848 288.10813522 41.08635712 288.10297394 39.96484375 288.09765625 C38.85645645 288.0962413 37.74806915 288.09482635 36.60609436 288.09336853 C33.04986931 288.08775033 29.49370617 288.07519475 25.9375 288.0625 C23.53320403 288.05748734 21.12890708 288.05292403 18.72460938 288.04882812 C12.81638496 288.03777499 6.9081969 288.02101917 1 288 C-1 284 -1 284 0 272 C-10.89 272 -21.78 272 -33 272 C-33.88747193 268.45011229 -34.10545467 265.85819222 -34.0625 262.25 C-34.05347656 261.26515625 -34.04445312 260.2803125 -34.03515625 259.265625 C-34.02355469 258.51796875 -34.01195312 257.7703125 -34 257 C-34.99902344 256.93941406 -35.99804688 256.87882812 -37.02734375 256.81640625 C-38.31769531 256.73261719 -39.60804688 256.64882813 -40.9375 256.5625 C-42.22527344 256.48128906 -43.51304687 256.40007812 -44.83984375 256.31640625 C-48 256 -48 256 -49 255 C-49.07313567 252.46950598 -49.09247527 249.96695163 -49.0625 247.4375 C-49.05798828 246.72658203 -49.05347656 246.01566406 -49.04882812 245.28320312 C-49.03700864 243.52209987 -49.01907263 241.76103964 -49 240 C-50.60681641 240.01740234 -50.60681641 240.01740234 -52.24609375 240.03515625 C-53.64322743 240.04453299 -55.04036299 240.05363331 -56.4375 240.0625 C-57.14455078 240.07087891 -57.85160156 240.07925781 -58.58007812 240.08789062 C-60.38693559 240.09653588 -62.19387603 240.05220011 -64 240 C-65 239 -65 239 -65.09765625 235.62109375 C-65.09191424 234.22652508 -65.07890228 232.83198403 -65.0625 231.4375 C-65.041875 228.983125 -65.02125 226.52875 -65 224 C-70.28 224 -75.56 224 -81 224 C-81 214.1 -81 204.2 -81 194 C-85.62 193.67 -90.24 193.34 -95 193 C-96.89751904 191.10248096 -96.12671315 188.31942229 -96.13552856 185.79440308 C-96.13350433 184.9018985 -96.1314801 184.00939392 -96.12939453 183.08984375 C-96.13114685 182.15496124 -96.13289917 181.22007874 -96.13470459 180.25686646 C-96.13912474 177.15039238 -96.13618454 174.04397471 -96.1328125 170.9375 C-96.13348549 168.78898101 -96.13445548 166.64046209 -96.13571167 164.49194336 C-96.13718886 159.98257728 -96.13503339 155.47323097 -96.13037109 150.96386719 C-96.1246738 145.16951423 -96.12795269 139.37520758 -96.13394356 133.58085632 C-96.13754859 129.14237109 -96.13641085 124.70389693 -96.13381577 120.26541138 C-96.13314634 118.12826533 -96.13397547 115.99111829 -96.13629532 113.85397339 C-96.1388209 110.87267374 -96.13498259 107.8914502 -96.12939453 104.91015625 C-96.13141876 104.01765167 -96.13344299 103.12514709 -96.13552856 102.20559692 C-96.11426232 96.11426232 -96.11426232 96.11426232 -95 95 C-92.64686445 94.92728259 -90.29166332 94.91629132 -87.9375 94.9375 C-86.00197266 94.95103516 -86.00197266 94.95103516 -84.02734375 94.96484375 C-83.02832031 94.97644531 -82.02929688 94.98804687 -81 95 C-81.00523682 94.06615479 -81.01047363 93.13230957 -81.01586914 92.17016602 C-81.0328762 88.71687204 -81.04543302 85.26362233 -81.05493164 81.81030273 C-81.05997121 80.31355082 -81.06680287 78.81680384 -81.07543945 77.32006836 C-81.08752159 75.17300193 -81.09323191 73.02600038 -81.09765625 70.87890625 C-81.10289307 69.5854126 -81.10812988 68.29191895 -81.11352539 66.95922852 C-81 64 -81 64 -80 63 C-77.64686445 62.92728259 -75.29166332 62.91629132 -72.9375 62.9375 C-71.64714844 62.94652344 -70.35679687 62.95554688 -69.02734375 62.96484375 C-68.02832031 62.97644531 -67.02929688 62.98804688 -66 63 C-66.01160156 61.92878906 -66.02320313 60.85757813 -66.03515625 59.75390625 C-66.04453299 58.35677257 -66.05363331 56.95963701 -66.0625 55.5625 C-66.07087891 54.85544922 -66.07925781 54.14839844 -66.08789062 53.41992188 C-66.09653588 51.61306441 -66.05220011 49.80612397 -66 48 C-65 47 -65 47 -61.40234375 46.90234375 C-59.91402745 46.90808728 -58.42573704 46.92110109 -56.9375 46.9375 C-54.318125 46.958125 -51.69875 46.97875 -49 47 C-49 41.39 -49 35.78 -49 30 C-43.72 30 -38.44 30 -33 30 C-33.020625 27.710625 -33.04125 25.42125 -33.0625 23.0625 C-33.08370868 20.70833668 -33.07271741 18.35313555 -33 16 C-32 15 -32 15 -28.94897461 14.88647461 C-27.60008729 14.88663366 -26.25119386 14.89232388 -24.90234375 14.90234375 C-23.83905602 14.90446617 -23.83905602 14.90446617 -22.75428772 14.90663147 C-20.48198288 14.91224557 -18.20977525 14.92480037 -15.9375 14.9375 C-14.40039204 14.94251319 -12.86328255 14.94707641 -11.32617188 14.95117188 C-7.55071333 14.9613703 -3.77546596 14.98094268 0 15 C0 10.05 0 5.1 0 0 Z " fill="#197E31" transform="translate(218,0)"/>
<path d="M0 0 C11.88 0 23.76 0 36 0 C36 4.95 36 9.9 36 15 C39.44759766 14.98259766 39.44759766 14.98259766 42.96484375 14.96484375 C45.18220888 14.95705291 47.39957251 14.95097631 49.61694336 14.94506836 C51.16219766 14.9400286 52.70744716 14.9331968 54.25268555 14.92456055 C56.46925029 14.91247924 58.68575218 14.90676827 60.90234375 14.90234375 C61.5971434 14.89718246 62.29194305 14.89202118 63.00779724 14.88670349 C64.6722933 14.88650723 66.33665499 14.93810871 68 15 C69 16 69 16 69.09765625 18.94140625 C69.08025391 20.73384766 69.08025391 20.73384766 69.0625 22.5625 C69.05347656 23.76003906 69.04445313 24.95757813 69.03515625 26.19140625 C69.01775391 27.58166016 69.01775391 27.58166016 69 29 C70.49853516 29.09087891 70.49853516 29.09087891 72.02734375 29.18359375 C73.96287109 29.30927734 73.96287109 29.30927734 75.9375 29.4375 C77.86916016 29.55931641 77.86916016 29.55931641 79.83984375 29.68359375 C83 30 83 30 84 31 C84.07319621 33.69654854 84.09242537 36.36691458 84.0625 39.0625 C84.05798828 39.82111328 84.05347656 40.57972656 84.04882812 41.36132812 C84.0370068 43.24091871 84.01907078 45.12046899 84 47 C85.60681641 46.98259766 85.60681641 46.98259766 87.24609375 46.96484375 C88.64322743 46.95546701 90.04036299 46.94636669 91.4375 46.9375 C92.14455078 46.92912109 92.85160156 46.92074219 93.58007812 46.91210938 C95.38693559 46.90346412 97.19387603 46.94779989 99 47 C100 48 100 48 100.09765625 51.37890625 C100.09098369 52.77347077 100.07902532 54.16801743 100.0625 55.5625 C100.05798828 56.27341797 100.05347656 56.98433594 100.04882812 57.71679688 C100.03700864 59.47790013 100.01907263 61.23896036 100 63 C101.60681641 62.98259766 101.60681641 62.98259766 103.24609375 62.96484375 C104.64322743 62.95546701 106.04036299 62.94636669 107.4375 62.9375 C108.14455078 62.92912109 108.85160156 62.92074219 109.58007812 62.91210938 C111.38693559 62.90346412 113.19387603 62.94779989 115 63 C116 64 116 64 116.11352539 66.86743164 C116.10828857 68.11903076 116.10305176 69.37062988 116.09765625 70.66015625 C116.09553383 71.65685585 116.09553383 71.65685585 116.09336853 72.6736908 C116.08775518 74.80333899 116.07520054 76.93288339 116.0625 79.0625 C116.05748671 80.50325369 116.05292351 81.94400903 116.04882812 83.38476562 C116.03778145 86.92321102 116.02050792 90.46159539 116 94 C117.71135132 93.87057007 117.71135132 93.87057007 119.45727539 93.73852539 C120.77074951 93.63918701 122.08422363 93.53984863 123.4375 93.4375 C124.5985022 93.34553345 124.5985022 93.34553345 125.78295898 93.25170898 C127.51961658 93.12830457 129.26008045 93.0623555 131 93 C132.91926241 94.91926241 132.12679331 97.7783302 132.13552856 100.33251953 C132.13249222 101.69932861 132.13249222 101.69932861 132.12939453 103.09375 C132.13202301 104.52533447 132.13202301 104.52533447 132.13470459 105.98583984 C132.13912487 109.15724477 132.1361845 112.32859445 132.1328125 115.5 C132.13348549 117.69335948 132.13445547 119.8867189 132.13571167 122.08007812 C132.13718888 126.68360095 132.13503334 131.28710442 132.13037109 135.890625 C132.1246738 141.80604595 132.12795268 147.72142154 132.13394356 153.63684082 C132.13754854 158.16797226 132.13641087 162.69909285 132.13381577 167.23022461 C132.13314632 169.41202805 132.13397552 171.59383246 132.13629532 173.77563477 C132.13882082 176.8191999 132.1349827 179.86269046 132.12939453 182.90625 C132.13141876 183.81745605 132.13344299 184.72866211 132.13552856 185.66748047 C132.11426229 191.88573771 132.11426229 191.88573771 131 193 C128.47403741 193.23653523 125.96892793 193.42173692 123.4375 193.5625 C122.72658203 193.60568359 122.01566406 193.64886719 121.28320312 193.69335938 C119.52238088 193.79971777 117.7612168 193.90038846 116 194 C116.00523682 194.87325928 116.01047363 195.74651855 116.01586914 196.64624023 C116.03287751 199.87589273 116.04543369 203.10552245 116.05493164 206.33520508 C116.0599708 207.73495228 116.06680216 209.1346942 116.07543945 210.53442383 C116.0875232 212.54245777 116.09269807 214.55052957 116.09765625 216.55859375 C116.10289307 217.76829834 116.10812988 218.97800293 116.11352539 220.22436523 C116 223 116 223 115 224 C112.30345146 224.07319621 109.63308542 224.09242537 106.9375 224.0625 C106.17888672 224.05798828 105.42027344 224.05347656 104.63867188 224.04882812 C102.75908129 224.0370068 100.87953101 224.01907078 99 224 C99.33 224.66 99.66 225.32 100 226 C100.09663965 228.18576146 100.12980327 230.37460848 100.125 232.5625 C100.12757813 233.73941406 100.13015625 234.91632813 100.1328125 236.12890625 C100 239 100 239 99 240 C96.4672235 240.07320163 93.96896082 240.09227569 91.4375 240.0625 C88.983125 240.041875 86.52875 240.02125 84 240 C84.33 245.28 84.66 250.56 85 256 C79.72 256 74.44 256 69 256 C69.03957157 261.22063275 69.03957157 261.22063275 69.09008789 266.44116211 C69.09723945 268.29433759 69.0502852 270.14749308 69 272 C68 273 68 273 64.85717773 273.02172852 C63.46581239 272.97940203 62.07461337 272.93137967 60.68359375 272.87890625 C59.95253922 272.85529526 59.22148468 272.83168427 58.46827698 272.80735779 C56.12449544 272.73054916 53.78103018 272.64659969 51.4375 272.5625 C49.85222922 272.50929648 48.26694282 272.45655598 46.68164062 272.40429688 C42.78755868 272.27491096 38.8937459 272.13911869 35 272 C35.33 272.66 35.66 273.32 36 274 C36.09663965 276.18576146 36.12980327 278.37460848 36.125 280.5625 C36.12757813 281.73941406 36.13015625 282.91632813 36.1328125 284.12890625 C36 287 36 287 35 288 C33.33207077 288.09831588 31.65995994 288.12631989 29.98913574 288.12698364 C28.36110268 288.13121338 28.36110268 288.13121338 26.70018005 288.13552856 C25.4991011 288.13350433 24.29802216 288.1314801 23.06054688 288.12939453 C21.80379654 288.13114685 20.5470462 288.13289917 19.25221252 288.13470459 C15.79569353 288.1392784 12.33920425 288.13748958 8.88268471 288.1343255 C5.27298525 288.13180163 1.66328842 288.13413952 -1.94641113 288.13571167 C-8.00936339 288.13753329 -14.07230349 288.13512726 -20.13525391 288.13037109 C-27.15450086 288.12492849 -34.17371878 288.12669115 -41.19296503 288.1321975 C-47.20908943 288.13672885 -53.22520507 288.13737907 -59.24133062 288.13475883 C-62.83907898 288.13319618 -66.43681367 288.13300196 -70.03456116 288.13629532 C-74.04324069 288.13970822 -78.0518698 288.13498393 -82.06054688 288.12939453 C-83.8621653 288.13243088 -83.8621653 288.13243088 -85.70018005 288.13552856 C-86.78553543 288.13270874 -87.87089081 288.12988892 -88.98913574 288.12698364 C-89.93820549 288.12660662 -90.88727524 288.12622959 -91.86510468 288.12584114 C-94 288 -94 288 -95 287 C-95.09935148 284.98049791 -95.12799508 282.95749085 -95.12939453 280.93554688 C-95.13254669 279.63750122 -95.13569885 278.33945557 -95.13894653 277.0020752 C-95.13715675 275.57429979 -95.1351058 274.14652469 -95.1328125 272.71875 C-95.13348558 271.26525862 -95.13445564 269.81176736 -95.13571167 268.35827637 C-95.13718846 265.30833873 -95.1350347 262.25843034 -95.13037109 259.20849609 C-95.1246738 255.29069441 -95.12795291 251.37296122 -95.13394356 247.45516205 C-95.13754969 244.45269246 -95.13641035 241.45023923 -95.13381577 238.44776917 C-95.13314664 237.00281262 -95.13397442 235.55785461 -95.13629532 234.11289978 C-95.13882265 232.09675117 -95.13429052 230.08059738 -95.12939453 228.06445312 C-95.12859894 226.91497192 -95.12780334 225.76549072 -95.12698364 224.58117676 C-95 222 -95 222 -94 221 C-91.65012738 220.76472227 -89.29443961 220.58613583 -86.9375 220.4375 C-85.64714844 220.35371094 -84.35679687 220.26992187 -83.02734375 220.18359375 C-82.02832031 220.12300781 -81.02929688 220.06242188 -80 220 C-79.97494385 219.09644775 -79.9498877 218.19289551 -79.92407227 217.26196289 C-79.82912683 213.9203572 -79.72988379 210.57893748 -79.62768555 207.23754883 C-79.5842837 205.7893576 -79.54261256 204.34111346 -79.50268555 202.89282227 C-79.44510938 200.81510441 -79.38137972 198.73765427 -79.31640625 196.66015625 C-79.27974854 195.40855713 -79.24309082 194.15695801 -79.20532227 192.86743164 C-79 190 -79 190 -78 189 C-75.04753646 188.90473194 -72.11851579 188.87447548 -69.16577148 188.88647461 C-67.77566864 188.88625557 -67.77566864 188.88625557 -66.35748291 188.8860321 C-63.27866313 188.88673162 -60.19990303 188.89452579 -57.12109375 188.90234375 C-54.99259982 188.90420779 -52.86410547 188.90563176 -50.73561096 188.90663147 C-45.1213768 188.91045772 -39.50716832 188.92028892 -33.89294434 188.93133545 C-28.16886747 188.94154727 -22.44478647 188.9461286 -16.72070312 188.95117188 C-5.48045744 188.96191109 5.75976915 188.9789888 17 189 C17 184.05 17 179.1 17 174 C21 173 21 173 33 174 C33 154.2 33 134.4 33 114 C27.72 114 22.44 114 17 114 C15.81775332 110.45325997 16.10670366 108.02477005 16.4375 104.3125 C16.53933594 103.13300781 16.64117187 101.95351562 16.74609375 100.73828125 C16.87177734 99.38283203 16.87177734 99.38283203 17 98 C16.40087296 98.01474869 15.80174591 98.02949738 15.1844635 98.04469299 C8.97214889 98.1966277 2.75969852 98.34149393 -3.45288086 98.48217773 C-5.77421284 98.53568563 -8.09550342 98.59102145 -10.41674805 98.64819336 C-13.74518907 98.72985982 -17.07372163 98.80504119 -20.40234375 98.87890625 C-21.44712387 98.90594131 -22.49190399 98.93297638 -23.56834412 98.96083069 C-24.52926468 98.98092697 -25.49018524 99.00102325 -26.48022461 99.02172852 C-27.33071884 99.04171402 -28.18121307 99.06169952 -29.05747986 99.08229065 C-31 99 -31 99 -32 98 C-32.08669432 96.5112814 -32.10703494 95.018555 -32.09765625 93.52734375 C-32.09443359 92.62822266 -32.09121094 91.72910156 -32.08789062 90.80273438 C-32.07532227 89.38444336 -32.07532227 89.38444336 -32.0625 87.9375 C-32.05798828 86.98810547 -32.05347656 86.03871094 -32.04882812 85.06054688 C-32.03700128 82.70700469 -32.01906521 80.35349468 -32 78 C-26.39 78 -20.78 78 -15 78 C-15 62.16 -15 46.32 -15 30 C-10.05 30 -5.1 30 0 30 C0 20.1 0 10.2 0 0 Z " fill="#197D31" transform="translate(393,0)"/>
<path d="M0 0 C23.079375 -0.020625 46.15875 -0.04125 69.9375 -0.0625 C80.88732056 -0.07615601 80.88732056 -0.07615601 92.05834961 -0.09008789 C100.94055176 -0.09460449 100.94055176 -0.09460449 105.09254456 -0.09544373 C108.00584162 -0.09637915 110.91912064 -0.10014156 113.83241272 -0.10557556 C117.54157667 -0.11240308 121.25071416 -0.11449705 124.95988381 -0.11307228 C126.9727479 -0.11351182 128.98560902 -0.11889157 130.99846554 -0.12442875 C132.17535726 -0.12305125 133.35224897 -0.12167376 134.56480408 -0.12025452 C135.59629043 -0.12117631 136.62777678 -0.1220981 137.69052029 -0.12304783 C140 0 140 0 141 1 C141.09319449 2.5348297 141.117458 4.07392082 141.11352539 5.61157227 C141.11344986 6.59251358 141.11337433 7.5734549 141.11329651 8.5841217 C141.10813522 9.6507756 141.10297394 10.7174295 141.09765625 11.81640625 C141.09553383 13.44569313 141.09553383 13.44569313 141.09336853 15.1078949 C141.08775048 18.59279075 141.07519492 22.07762342 141.0625 25.5625 C141.05748733 27.91861887 141.05292402 30.27473874 141.04882812 32.63085938 C141.03777519 38.42059464 141.02101951 44.21029281 141 50 C136.34272143 51.18181659 131.84770807 51.13410949 127.07885742 51.11352539 C126.19055237 51.11367142 125.30224731 51.11381744 124.38702393 51.1139679 C121.45981376 51.11327293 118.53266775 51.1055 115.60546875 51.09765625 C113.57237279 51.09579059 111.53927638 51.09436739 109.50617981 51.09336853 C104.16161859 51.08955499 98.81708464 51.07973462 93.47253418 51.06866455 C88.01619842 51.05842543 82.55985823 51.05386555 77.10351562 51.04882812 C66.40232985 51.03811132 55.70117146 51.02052392 45 51 C45 60.24 45 69.48 45 79 C47.3826709 78.96447021 49.7653418 78.92894043 52.22021484 78.89233398 C60.07919208 78.77588889 67.93824129 78.66506679 75.79733849 78.5570364 C80.56382976 78.49134287 85.33027812 78.42373618 90.09667969 78.35180664 C94.69368742 78.28250299 99.29073991 78.21816021 103.88786697 78.15730476 C105.64462444 78.13316807 107.40135798 78.10722233 109.15806198 78.07946587 C111.61233527 78.04099202 114.06661371 78.00886288 116.52099609 77.97827148 C117.61827278 77.95885246 117.61827278 77.95885246 118.73771667 77.93904114 C123.77189568 77.88594784 123.77189568 77.88594784 126 79 C125.88271126 86.10258662 125.75787535 93.20501125 125.62768555 100.30737305 C125.58426122 102.72563639 125.54259188 105.1439319 125.50268555 107.56225586 C125.44516397 111.02988396 125.38141813 114.49734903 125.31640625 117.96484375 C125.29969376 119.05337143 125.28298126 120.14189911 125.26576233 121.26341248 C125.24581711 122.26437454 125.22587189 123.26533661 125.20532227 124.29663086 C125.18977798 125.18265488 125.1742337 126.06867889 125.15821838 126.98155212 C125 129 125 129 124 130 C121.53551872 130.09500705 119.0992917 130.12556678 116.63452148 130.11352539 C115.85133828 130.11364593 115.06815508 130.11376646 114.26123905 130.11389065 C111.71449552 130.11314152 109.16782427 130.10551331 106.62109375 130.09765625 C105.05342647 130.09618683 103.48575869 130.09516612 101.91809082 130.09460449 C96.09121975 130.08935161 90.26435918 130.07539052 84.4375 130.0625 C71.423125 130.041875 58.40875 130.02125 45 130 C45 156.4 45 182.8 45 210 C40.54713933 210.89057213 36.5278044 211.14538284 32.03125 211.1328125 C30.8943573 211.13424759 30.8943573 211.13424759 29.73449707 211.13571167 C28.13761308 211.13638988 26.54072629 211.13456068 24.94384766 211.13037109 C22.50807466 211.12501775 20.07248605 211.13032824 17.63671875 211.13671875 C16.08072876 211.1360579 14.52473889 211.13477661 12.96875 211.1328125 C11.88261414 211.13584885 11.88261414 211.13584885 10.77453613 211.13894653 C6.96559884 211.12139874 3.77919325 210.75583865 0 210 C0 140.7 0 71.4 0 0 Z " fill="#000101" transform="translate(0,347)"/>
<path d="M0 0 C1.25963011 0.00138269 1.25963011 0.00138269 2.5447073 0.00279331 C3.50529552 0.00141865 4.46588375 0.00004398 5.45558071 -0.00137234 C6.51796963 0.00222294 7.58035854 0.00581821 8.67494106 0.00952244 C10.34302067 0.0093034 10.34302067 0.0093034 12.04479885 0.00907993 C15.74046143 0.00977962 19.43607434 0.01757463 23.13172817 0.02539158 C25.68620686 0.02725556 28.24068589 0.02867956 30.79516506 0.0296793 C36.84418902 0.03311439 42.89319147 0.04100518 48.9422068 0.05102879 C55.82722346 0.062191 62.71224096 0.06770065 69.59726441 0.07272422 C83.76371052 0.08318783 97.93013956 0.10098711 112.09657192 0.12304783 C112.09657192 5.40304783 112.09657192 10.68304783 112.09657192 16.12304783 C116.98810663 16.08347993 116.98810663 16.08347993 121.87953091 16.03295994 C123.61878909 16.02579869 125.35802496 16.07280081 127.09657192 16.12304783 C128.09657192 17.12304783 128.09657192 17.12304783 128.19422817 20.50195408 C128.18755561 21.8965186 128.17559724 23.29106525 128.15907192 24.68554783 C128.1545602 25.3964658 128.15004848 26.10738377 128.14540005 26.8398447 C128.13358056 28.60094796 128.11564455 30.36200819 128.09657192 32.12304783 C129.70338833 32.10564548 129.70338833 32.10564548 131.34266567 32.08789158 C132.73979935 32.07851484 134.13693491 32.06941452 135.53407192 32.06054783 C136.2411227 32.05216892 136.94817348 32.04379002 137.67665005 32.0351572 C139.48350752 32.02651195 141.29044795 32.07084771 143.09657192 32.12304783 C144.09657192 33.12304783 144.09657192 33.12304783 144.21961975 35.02647591 C144.21869796 35.86622931 144.21777617 36.70598272 144.21682644 37.5711832 C144.21888844 39.01206554 144.21888844 39.01206554 144.22099209 40.48205662 C144.21739681 41.54444553 144.21380154 42.60683445 144.21009731 43.70141697 C144.21024334 44.81347004 144.21038937 45.92552311 144.21053982 47.07127476 C144.20984013 50.76693734 144.20204512 54.46255024 144.19422817 58.15820408 C144.19236419 60.71268276 144.1909402 63.2671618 144.18994045 65.82164097 C144.18650536 71.87066493 144.17861457 77.91966738 144.16859096 83.96868271 C144.15742875 90.85369937 144.1519191 97.73871687 144.14689553 104.62374032 C144.13643192 118.79018613 144.11883315 132.956616 144.09657192 147.12304783 C140.80153619 147.81121435 137.78260594 148.24902956 134.41395473 148.25244236 C133.51662624 148.25559452 132.61929775 148.25874668 131.69477749 148.26199436 C130.7394009 148.25997013 129.78402431 148.2579459 128.79969692 148.25586033 C127.31563351 148.25729542 127.31563351 148.25729542 125.80158901 148.2587595 C123.71713605 148.25943847 121.63268095 148.25760392 119.54823208 148.25341892 C116.34424562 148.24804393 113.14039791 148.25338512 109.93641567 148.25976658 C107.91167578 148.25910619 105.88693597 148.25782585 103.86219692 148.25586033 C102.89872341 148.25788456 101.9352499 148.25990879 100.94258022 148.26199436 C99.61550045 148.25726612 99.61550045 148.25726612 98.26161098 148.25244236 C97.08843319 148.25124897 97.08843319 148.25124897 95.89155483 148.25003147 C94.09657192 148.12304783 94.09657192 148.12304783 93.09657192 147.12304783 C92.97126038 144.17134403 92.91046062 141.24191261 92.89124966 138.28881931 C92.88135006 137.36208408 92.87145046 136.43534885 92.86125088 135.48053074 C92.82953491 132.40176079 92.80483872 129.32297538 92.78016567 126.24414158 C92.75960485 124.11564312 92.73860862 121.98714882 92.71719265 119.85865879 C92.66188188 114.24447079 92.61251246 108.6302454 92.56434536 103.01599216 C92.5053855 96.2862471 92.4391082 89.55657066 92.37404537 82.82688236 C92.27592264 72.59231262 92.18714406 62.35769974 92.09657192 52.12304783 C77.57657192 52.12304783 63.05657192 52.12304783 48.09657192 52.12304783 C48.09657192 83.47304783 48.09657192 114.82304783 48.09657192 147.12304783 C44.54022313 147.83431759 41.92471407 148.24888559 38.41395473 148.25244236 C37.51662624 148.25559452 36.61929775 148.25874668 35.69477749 148.26199436 C34.7394009 148.25997013 33.78402431 148.2579459 32.79969692 148.25586033 C31.31563351 148.25729542 31.31563351 148.25729542 29.80158901 148.2587595 C27.71713605 148.25943847 25.63268095 148.25760392 23.54823208 148.25341892 C20.34424562 148.24804393 17.14039791 148.25338512 13.93641567 148.25976658 C11.91167578 148.25910619 9.88693597 148.25782585 7.86219692 148.25586033 C6.89872341 148.25788456 5.9352499 148.25990879 4.94258022 148.26199436 C3.61550045 148.25726612 3.61550045 148.25726612 2.26161098 148.25244236 C1.08843319 148.25124897 1.08843319 148.25124897 -0.10844517 148.25003147 C-1.90342808 148.12304783 -1.90342808 148.12304783 -2.90342808 147.12304783 C-3.00216089 145.23974236 -3.02974995 143.35268945 -3.03041172 141.46679783 C-3.03323154 140.23840183 -3.03605137 139.01000584 -3.03895664 137.74438572 C-3.03701205 136.37060628 -3.03496386 134.99682698 -3.03282261 133.62304783 C-3.03417661 132.18611704 -3.03595654 130.74918659 -3.03813267 129.31225681 C-3.04270713 125.39914194 -3.04091739 121.48605332 -3.03775358 117.57293797 C-3.03523005 113.48677593 -3.0375675 109.4006162 -3.03913975 105.31445408 C-3.04096146 98.4511687 -3.03855508 91.58789407 -3.03379917 84.72461033 C-3.02835655 76.77832777 -3.0301192 68.83207086 -3.03562558 60.88578892 C-3.04015665 54.07561618 -3.04080728 47.2654512 -3.03818691 40.45527744 C-3.0366241 36.38245313 -3.03643046 32.3096409 -3.0397234 28.23681736 C-3.04260203 24.40869025 -3.04062657 20.58059638 -3.03482914 16.75247288 C-3.0335015 15.34351755 -3.03389573 13.93455945 -3.0360918 12.5256052 C-3.03880312 10.61017039 -3.03480866 8.69472951 -3.03041172 6.77929783 C-3.03003469 5.70486423 -3.02965767 4.63043064 -3.02926922 3.52343845 C-2.8542251 0.18451246 -2.8542251 0.18451246 0 0 Z " fill="#010101" transform="translate(220.90342807769775,409.8769521713257)"/>
<path d="M0 0 C48.51 0 97.02 0 147 0 C147 21.45 147 42.9 147 65 C141 66 141 66 131 66 C131 76.23 131 86.46 131 97 C128.64305461 98.1784727 127.21241172 98.13725868 124.58346558 98.15821838 C123.6551593 98.1680072 122.72685303 98.17779602 121.77041626 98.18788147 C120.74902557 98.19363693 119.72763489 98.1993924 118.67529297 98.20532227 C117.60210815 98.21522186 116.52892334 98.22512146 115.42321777 98.23532104 C111.86289707 98.26700158 108.30256301 98.29171938 104.7421875 98.31640625 C102.27881516 98.33697012 99.8154464 98.35796643 97.3520813 98.37937927 C90.85836679 98.43465853 84.36462012 98.48404196 77.87084961 98.53222656 C71.24850594 98.5823989 64.62620914 98.63810721 58.00390625 98.69335938 C45.00264418 98.80101253 32.00134146 98.90244156 19 99 C19 103.62 19 108.24 19 113 C13.78564074 114.30358981 8.35627251 114.55364396 3 115 C3 134.47 3 153.94 3 174 C7.95 174 12.9 174 18 174 C19 175 19 175 19.09765625 178.16015625 C19.08605469 179.44792969 19.07445312 180.73570312 19.0625 182.0625 C19.05347656 183.35285156 19.04445313 184.64320313 19.03515625 185.97265625 C19.02355469 186.97167969 19.01195312 187.97070312 19 189 C20.15844925 188.97454605 20.15844925 188.97454605 21.34030151 188.94857788 C28.60928263 188.7906597 35.87836542 188.64245313 43.14776421 188.50522423 C46.8852667 188.43432452 50.6226143 188.35963686 54.35986328 188.27636719 C57.96476224 188.19618455 61.56972974 188.12585438 65.17496109 188.06242752 C66.5521773 188.0364518 67.92933063 188.00689255 69.30639267 187.97373581 C71.23124214 187.92799451 73.15640433 187.89603481 75.08154297 187.86474609 C76.17852509 187.84253998 77.2755072 187.82033386 78.4057312 187.79745483 C81 188 81 188 83 190 C83.30675232 192.89967757 83.51173371 195.71783178 83.625 198.625 C83.68300781 199.82769531 83.68300781 199.82769531 83.7421875 201.0546875 C83.83653931 203.03607556 83.91936215 205.01800645 84 207 C79.97485579 208.7406029 76.59395517 209.11379042 72.26953125 209.0625 C71.28186768 209.05347656 70.2942041 209.04445312 69.27661133 209.03515625 C68.52532959 209.02355469 67.77404785 209.01195312 67 209 C67.00222061 209.57407089 67.00444122 210.14814178 67.00672913 210.73960876 C67.02878257 216.6925291 67.04390684 222.6454379 67.05493164 228.59838867 C67.05997317 230.82267732 67.06680623 233.04696263 67.07543945 235.27124023 C67.08751298 238.46078309 67.09322996 241.65028229 67.09765625 244.83984375 C67.10281754 245.84087631 67.10797882 246.84190887 67.11329651 247.87327576 C67.11337204 248.79415482 67.11344757 249.71503387 67.11352539 250.66381836 C67.115746 251.47878281 67.11796661 252.29374725 67.12025452 253.13340759 C67 255 67 255 66 256 C63.46950598 256.07313567 60.96695163 256.09247527 58.4375 256.0625 C57.37112305 256.05573242 57.37112305 256.05573242 56.28320312 256.04882812 C54.52209987 256.03700864 52.76103964 256.01907263 51 256 C51.03552979 256.93384521 51.07105957 257.86769043 51.10766602 258.82983398 C51.23661333 262.28299578 51.36097112 265.73625852 51.48217773 269.18969727 C51.53566434 270.68650938 51.5909987 272.18325663 51.64819336 273.67993164 C51.72991956 275.82684332 51.8050746 277.97389793 51.87890625 280.12109375 C51.9260376 281.4145874 51.97316895 282.70808105 52.02172852 284.04077148 C52 287 52 287 51 288 C49.43452952 288.09326716 47.86487228 288.11745582 46.29663086 288.11352539 C45.29566879 288.11344986 44.29470673 288.11337433 43.26341248 288.11329651 C42.1748848 288.10813522 41.08635712 288.10297394 39.96484375 288.09765625 C38.85645645 288.0962413 37.74806915 288.09482635 36.60609436 288.09336853 C33.04986931 288.08775033 29.49370617 288.07519475 25.9375 288.0625 C23.53320403 288.05748734 21.12890708 288.05292403 18.72460938 288.04882812 C12.81638496 288.03777499 6.9081969 288.02101917 1 288 C-1 284 -1 284 0 272 C-10.89 272 -21.78 272 -33 272 C-33.88747193 268.45011229 -34.10545467 265.85819222 -34.0625 262.25 C-34.05347656 261.26515625 -34.04445312 260.2803125 -34.03515625 259.265625 C-34.02355469 258.51796875 -34.01195312 257.7703125 -34 257 C-34.99902344 256.93941406 -35.99804688 256.87882812 -37.02734375 256.81640625 C-38.31769531 256.73261719 -39.60804688 256.64882813 -40.9375 256.5625 C-42.22527344 256.48128906 -43.51304687 256.40007812 -44.83984375 256.31640625 C-48 256 -48 256 -49 255 C-49.07313567 252.46950598 -49.09247527 249.96695163 -49.0625 247.4375 C-49.05798828 246.72658203 -49.05347656 246.01566406 -49.04882812 245.28320312 C-49.03700864 243.52209987 -49.01907263 241.76103964 -49 240 C-50.60681641 240.01740234 -50.60681641 240.01740234 -52.24609375 240.03515625 C-53.64322743 240.04453299 -55.04036299 240.05363331 -56.4375 240.0625 C-57.14455078 240.07087891 -57.85160156 240.07925781 -58.58007812 240.08789062 C-60.38693559 240.09653588 -62.19387603 240.05220011 -64 240 C-65 239 -65 239 -65.09765625 235.62109375 C-65.09191424 234.22652508 -65.07890228 232.83198403 -65.0625 231.4375 C-65.041875 228.983125 -65.02125 226.52875 -65 224 C-70.28 224 -75.56 224 -81 224 C-81 214.1 -81 204.2 -81 194 C-85.62 193.67 -90.24 193.34 -95 193 C-96.89751904 191.10248096 -96.12671315 188.31942229 -96.13552856 185.79440308 C-96.13350433 184.9018985 -96.1314801 184.00939392 -96.12939453 183.08984375 C-96.13114685 182.15496124 -96.13289917 181.22007874 -96.13470459 180.25686646 C-96.13912474 177.15039238 -96.13618454 174.04397471 -96.1328125 170.9375 C-96.13348549 168.78898101 -96.13445548 166.64046209 -96.13571167 164.49194336 C-96.13718886 159.98257728 -96.13503339 155.47323097 -96.13037109 150.96386719 C-96.1246738 145.16951423 -96.12795269 139.37520758 -96.13394356 133.58085632 C-96.13754859 129.14237109 -96.13641085 124.70389693 -96.13381577 120.26541138 C-96.13314634 118.12826533 -96.13397547 115.99111829 -96.13629532 113.85397339 C-96.1388209 110.87267374 -96.13498259 107.8914502 -96.12939453 104.91015625 C-96.13141876 104.01765167 -96.13344299 103.12514709 -96.13552856 102.20559692 C-96.11426232 96.11426232 -96.11426232 96.11426232 -95 95 C-92.64686445 94.92728259 -90.29166332 94.91629132 -87.9375 94.9375 C-86.00197266 94.95103516 -86.00197266 94.95103516 -84.02734375 94.96484375 C-83.02832031 94.97644531 -82.02929688 94.98804687 -81 95 C-81.00523682 94.06615479 -81.01047363 93.13230957 -81.01586914 92.17016602 C-81.0328762 88.71687204 -81.04543302 85.26362233 -81.05493164 81.81030273 C-81.05997121 80.31355082 -81.06680287 78.81680384 -81.07543945 77.32006836 C-81.08752159 75.17300193 -81.09323191 73.02600038 -81.09765625 70.87890625 C-81.10289307 69.5854126 -81.10812988 68.29191895 -81.11352539 66.95922852 C-81 64 -81 64 -80 63 C-77.64686445 62.92728259 -75.29166332 62.91629132 -72.9375 62.9375 C-71.64714844 62.94652344 -70.35679687 62.95554688 -69.02734375 62.96484375 C-68.02832031 62.97644531 -67.02929688 62.98804688 -66 63 C-66.01160156 61.92878906 -66.02320313 60.85757813 -66.03515625 59.75390625 C-66.04453299 58.35677257 -66.05363331 56.95963701 -66.0625 55.5625 C-66.07087891 54.85544922 -66.07925781 54.14839844 -66.08789062 53.41992188 C-66.09653588 51.61306441 -66.05220011 49.80612397 -66 48 C-65 47 -65 47 -61.40234375 46.90234375 C-59.91402745 46.90808728 -58.42573704 46.92110109 -56.9375 46.9375 C-54.318125 46.958125 -51.69875 46.97875 -49 47 C-49 41.39 -49 35.78 -49 30 C-43.72 30 -38.44 30 -33 30 C-33.020625 27.710625 -33.04125 25.42125 -33.0625 23.0625 C-33.08370868 20.70833668 -33.07271741 18.35313555 -33 16 C-32 15 -32 15 -28.94897461 14.88647461 C-27.60008729 14.88663366 -26.25119386 14.89232388 -24.90234375 14.90234375 C-23.83905602 14.90446617 -23.83905602 14.90446617 -22.75428772 14.90663147 C-20.48198288 14.91224557 -18.20977525 14.92480037 -15.9375 14.9375 C-14.40039204 14.94251319 -12.86328255 14.94707641 -11.32617188 14.95117188 C-7.55071333 14.9613703 -3.77546596 14.98094268 0 15 C0 10.05 0 5.1 0 0 Z M1 17 C1 22.28 1 27.56 1 33 C-9.89 33 -20.78 33 -32 33 C-32 38.28 -32 43.56 -32 49 C-39.4375 48.9375 -39.4375 48.9375 -41.78295898 48.90991211 C-43.52221717 48.90275087 -45.26145304 48.94975298 -47 49 C-48.39156484 50.16277032 -48.39156484 50.16277032 -48.09765625 53.37890625 C-48.09191424 54.77347492 -48.07890228 56.16801597 -48.0625 57.5625 C-48.041875 60.016875 -48.02125 62.47125 -48 65 C-52.95 65 -57.9 65 -63 65 C-63 75.23 -63 85.46 -63 96 C-70.92 96.495 -70.92 96.495 -79 97 C-79 128.02 -79 159.04 -79 191 C-73.72 191 -68.44 191 -63 191 C-63 201.56 -63 212.12 -63 223 C-58.38 223 -53.76 223 -49 223 C-48 224 -48 224 -47.9375 226.87109375 C-47.97912104 229.24609455 -48.02078761 231.62109455 -48.0625 233.99609375 C-48.21619406 236.92470454 -48.21619406 236.92470454 -47 239 C-43.72444392 239.47001033 -43.72444392 239.47001033 -39.9375 239.625 C-38.64714844 239.69976562 -37.35679687 239.77453125 -36.02734375 239.8515625 C-34.52880859 239.92503906 -34.52880859 239.92503906 -33 240 C-32.90912109 241.37285156 -32.90912109 241.37285156 -32.81640625 242.7734375 C-32.73261719 243.96195313 -32.64882812 245.15046875 -32.5625 246.375 C-32.48128906 247.55835938 -32.40007812 248.74171875 -32.31640625 249.9609375 C-32.18915064 252.91518901 -32.18915064 252.91518901 -31 255 C-20.44 255 -9.88 255 1 255 C1 260.28 1 265.56 1 271 C11.56 271 22.12 271 33 271 C33 260.44 33 249.88 33 239 C38.61 239 44.22 239 50 239 C50 228.77 50 218.54 50 208 C39.11 208 28.22 208 17 208 C17 202.72 17 197.44 17 192 C12.05 191.67 7.1 191.34 2 191 C1.505 183.575 1.505 183.575 1 176 C-4.28 176 -9.56 176 -15 176 C-15 154.88 -15 133.76 -15 112 C-9.72 112 -4.44 112 1 112 C1 106.72 1 101.44 1 96 C6.28 96 11.56 96 17 96 C17 90.72 17 85.44 17 80 C49.01 80 81.02 80 114 80 C114 70.1 114 60.2 114 50 C118.95 49.67 123.9 49.34 129 49 C129 38.44 129 27.88 129 17 C86.76 17 44.52 17 1 17 Z " fill="#010202" transform="translate(218,0)"/>
<path d="M0 0 C1.20012726 0.01441132 1.20012726 0.01441132 2.42449951 0.02911377 C5.07589353 0.06216298 7.72712581 0.10247268 10.37841797 0.14282227 C12.21401393 0.1671176 14.04961592 0.19096145 15.88522339 0.21437073 C20.72189182 0.27727006 25.55845385 0.34632011 30.39501953 0.41662598 C35.32823837 0.48725665 40.26153279 0.55210511 45.19482422 0.61743164 C54.87850102 0.74651935 64.5620753 0.88210118 74.24560547 1.02172852 C75.4728483 6.62902994 74.8643026 11.3159661 74.24560547 17.02172852 C79.52560547 17.02172852 84.80560547 17.02172852 90.24560547 17.02172852 C91.97737827 22.21704692 90.72657295 27.62420453 90.24560547 33.02172852 C94.86560547 33.02172852 99.48560547 33.02172852 104.24560547 33.02172852 C104.24560547 60.74172852 104.24560547 88.46172852 104.24560547 117.02172852 C99.62560547 117.02172852 95.00560547 117.02172852 90.24560547 117.02172852 C90.25720703 118.09293945 90.26880859 119.16415039 90.28076172 120.26782227 C90.29013845 121.66495595 90.29923878 123.0620915 90.30810547 124.45922852 C90.31648437 125.1662793 90.32486328 125.87333008 90.33349609 126.60180664 C90.34214134 128.40866411 90.29780558 130.21560454 90.24560547 132.02172852 C89.24560547 133.02172852 89.24560547 133.02172852 85.86669922 133.11938477 C84.47213469 133.11271221 83.07758804 133.10075383 81.68310547 133.08422852 C80.61672852 133.07746094 80.61672852 133.07746094 79.52880859 133.07055664 C77.76770534 133.05873716 76.00664511 133.04080115 74.24560547 133.02172852 C74.25720703 134.09293945 74.26880859 135.16415039 74.28076172 136.26782227 C74.29013845 137.66495595 74.29923878 139.0620915 74.30810547 140.45922852 C74.31648437 141.1662793 74.32486328 141.87333008 74.33349609 142.60180664 C74.34214134 144.40866411 74.29780558 146.21560454 74.24560547 148.02172852 C72.49121384 149.77612015 70.19063091 149.14155815 67.85389709 149.14614868 C67.08138107 149.14255341 66.30886505 149.13895813 65.51293945 149.13525391 C64.29840088 149.13547295 64.29840088 149.13547295 63.05932617 149.13569641 C60.37009038 149.13499705 57.68092298 149.12720361 54.99169922 149.11938477 C53.13224831 149.11752067 51.27279691 149.11609673 49.41334534 149.11509705 C44.50931451 149.11127122 39.60531311 149.1014404 34.70129395 149.09039307 C29.70109454 149.08018032 24.70089041 149.07559972 19.70068359 149.07055664 C9.88230918 149.05981818 0.06396437 149.04222087 -9.75439453 149.02172852 C-10.08439453 143.74172852 -10.41439453 138.46172852 -10.75439453 133.02172852 C-13.04376953 133.20735352 -15.33314453 133.39297852 -17.69189453 133.58422852 C-20.04285871 133.77484723 -22.39744499 133.93141277 -24.75439453 134.02172852 C-26.81361855 131.9625045 -26.16867033 127.80464727 -26.31689453 124.95922852 C-26.36007812 124.20061523 -26.40326172 123.44200195 -26.44775391 122.66040039 C-26.55413086 120.78107414 -26.65479387 118.90142608 -26.75439453 117.02172852 C-28.00220703 117.01141602 -29.25001953 117.00110352 -30.53564453 116.99047852 C-31.23753906 116.98467773 -31.93943359 116.97887695 -32.66259766 116.97290039 C-35.41997787 117.03726501 -38.05395291 117.48164019 -40.75439453 118.02172852 C-41.97148328 114.37046228 -41.84995991 111.05832168 -41.79199219 107.26147461 C-41.78399094 106.47260361 -41.77598969 105.6837326 -41.76774597 104.87095642 C-41.73985432 102.26227104 -41.70438544 99.6537522 -41.66845703 97.04516602 C-41.64669227 95.23581304 -41.62524254 93.42645625 -41.60409546 91.61709595 C-41.55859601 87.82581568 -41.50936831 84.0346068 -41.45751953 80.2434082 C-41.39119662 75.37290242 -41.33396858 70.50234003 -41.27948952 65.63168907 C-41.23674595 61.89658783 -41.18929722 58.16155795 -41.1403923 54.42653275 C-41.11742645 52.62991746 -41.09592541 50.83328285 -41.07588577 49.03663254 C-41.04722861 46.53206159 -41.01227721 44.02765771 -40.97558594 41.52319336 C-40.96825943 40.77409195 -40.96093292 40.02499054 -40.9533844 39.25318909 C-40.86866945 34.13600343 -40.86866945 34.13600343 -39.75439453 33.02172852 C-35.08594225 32.87746238 -30.42573501 32.97964437 -25.75439453 33.02172852 C-25.75439453 27.41172852 -25.75439453 21.80172852 -25.75439453 16.02172852 C-20.47439453 16.35172852 -15.19439453 16.68172852 -9.75439453 17.02172852 C-9.75439453 11.74172852 -9.75439453 6.46172852 -9.75439453 1.02172852 C-6.65446878 -0.52823436 -3.39735072 -0.05790401 0 0 Z M42.94091797 52.11352539 C42.19068359 52.13382812 41.44044922 52.15413086 40.66748047 52.17504883 C39.53052734 52.20743652 39.53052734 52.20743652 38.37060547 52.24047852 C37.29166016 52.26996582 37.29166016 52.26996582 36.19091797 52.30004883 C33.54244741 52.37274756 30.89402924 52.44734491 28.24560547 52.52172852 C22.30560547 52.68672852 16.36560547 52.85172852 10.24560547 53.02172852 C10.24560547 73.15172852 10.24560547 93.28172852 10.24560547 114.02172852 C25.09560547 114.02172852 39.94560547 114.02172852 55.24560547 114.02172852 C55.24560547 93.56172852 55.24560547 73.10172852 55.24560547 52.02172852 C49.08926706 52.01060041 49.08926706 52.01060041 42.94091797 52.11352539 Z " fill="#000101" transform="translate(594.75439453125,408.978271484375)"/>
<path d="M0 0 C11.88 0 23.76 0 36 0 C36 4.95 36 9.9 36 15 C39.44759766 14.98259766 39.44759766 14.98259766 42.96484375 14.96484375 C45.18220888 14.95705291 47.39957251 14.95097631 49.61694336 14.94506836 C51.16219766 14.9400286 52.70744716 14.9331968 54.25268555 14.92456055 C56.46925029 14.91247924 58.68575218 14.90676827 60.90234375 14.90234375 C61.5971434 14.89718246 62.29194305 14.89202118 63.00779724 14.88670349 C64.6722933 14.88650723 66.33665499 14.93810871 68 15 C69 16 69 16 69.09765625 18.94140625 C69.08025391 20.73384766 69.08025391 20.73384766 69.0625 22.5625 C69.05347656 23.76003906 69.04445313 24.95757813 69.03515625 26.19140625 C69.01775391 27.58166016 69.01775391 27.58166016 69 29 C70.49853516 29.09087891 70.49853516 29.09087891 72.02734375 29.18359375 C73.96287109 29.30927734 73.96287109 29.30927734 75.9375 29.4375 C77.86916016 29.55931641 77.86916016 29.55931641 79.83984375 29.68359375 C83 30 83 30 84 31 C84.07319621 33.69654854 84.09242537 36.36691458 84.0625 39.0625 C84.05798828 39.82111328 84.05347656 40.57972656 84.04882812 41.36132812 C84.0370068 43.24091871 84.01907078 45.12046899 84 47 C85.60681641 46.98259766 85.60681641 46.98259766 87.24609375 46.96484375 C88.64322743 46.95546701 90.04036299 46.94636669 91.4375 46.9375 C92.14455078 46.92912109 92.85160156 46.92074219 93.58007812 46.91210938 C95.38693559 46.90346412 97.19387603 46.94779989 99 47 C100 48 100 48 100.09765625 51.37890625 C100.09098369 52.77347077 100.07902532 54.16801743 100.0625 55.5625 C100.05798828 56.27341797 100.05347656 56.98433594 100.04882812 57.71679688 C100.03700864 59.47790013 100.01907263 61.23896036 100 63 C101.60681641 62.98259766 101.60681641 62.98259766 103.24609375 62.96484375 C104.64322743 62.95546701 106.04036299 62.94636669 107.4375 62.9375 C108.14455078 62.92912109 108.85160156 62.92074219 109.58007812 62.91210938 C111.38693559 62.90346412 113.19387603 62.94779989 115 63 C116 64 116 64 116.11352539 66.86743164 C116.10828857 68.11903076 116.10305176 69.37062988 116.09765625 70.66015625 C116.09553383 71.65685585 116.09553383 71.65685585 116.09336853 72.6736908 C116.08775518 74.80333899 116.07520054 76.93288339 116.0625 79.0625 C116.05748671 80.50325369 116.05292351 81.94400903 116.04882812 83.38476562 C116.03778145 86.92321102 116.02050792 90.46159539 116 94 C117.71135132 93.87057007 117.71135132 93.87057007 119.45727539 93.73852539 C120.77074951 93.63918701 122.08422363 93.53984863 123.4375 93.4375 C124.5985022 93.34553345 124.5985022 93.34553345 125.78295898 93.25170898 C127.51961658 93.12830457 129.26008045 93.0623555 131 93 C132.91926241 94.91926241 132.12679331 97.7783302 132.13552856 100.33251953 C132.13249222 101.69932861 132.13249222 101.69932861 132.12939453 103.09375 C132.13202301 104.52533447 132.13202301 104.52533447 132.13470459 105.98583984 C132.13912487 109.15724477 132.1361845 112.32859445 132.1328125 115.5 C132.13348549 117.69335948 132.13445547 119.8867189 132.13571167 122.08007812 C132.13718888 126.68360095 132.13503334 131.28710442 132.13037109 135.890625 C132.1246738 141.80604595 132.12795268 147.72142154 132.13394356 153.63684082 C132.13754854 158.16797226 132.13641087 162.69909285 132.13381577 167.23022461 C132.13314632 169.41202805 132.13397552 171.59383246 132.13629532 173.77563477 C132.13882082 176.8191999 132.1349827 179.86269046 132.12939453 182.90625 C132.13141876 183.81745605 132.13344299 184.72866211 132.13552856 185.66748047 C132.11426229 191.88573771 132.11426229 191.88573771 131 193 C128.47403741 193.23653523 125.96892793 193.42173692 123.4375 193.5625 C122.72658203 193.60568359 122.01566406 193.64886719 121.28320312 193.69335938 C119.52238088 193.79971777 117.7612168 193.90038846 116 194 C116.00523682 194.87325928 116.01047363 195.74651855 116.01586914 196.64624023 C116.03287751 199.87589273 116.04543369 203.10552245 116.05493164 206.33520508 C116.0599708 207.73495228 116.06680216 209.1346942 116.07543945 210.53442383 C116.0875232 212.54245777 116.09269807 214.55052957 116.09765625 216.55859375 C116.10289307 217.76829834 116.10812988 218.97800293 116.11352539 220.22436523 C116 223 116 223 115 224 C112.30345146 224.07319621 109.63308542 224.09242537 106.9375 224.0625 C106.17888672 224.05798828 105.42027344 224.05347656 104.63867188 224.04882812 C102.75908129 224.0370068 100.87953101 224.01907078 99 224 C99.33 224.66 99.66 225.32 100 226 C100.09663965 228.18576146 100.12980327 230.37460848 100.125 232.5625 C100.12757813 233.73941406 100.13015625 234.91632813 100.1328125 236.12890625 C100 239 100 239 99 240 C96.4672235 240.07320163 93.96896082 240.09227569 91.4375 240.0625 C88.983125 240.041875 86.52875 240.02125 84 240 C84.33 245.28 84.66 250.56 85 256 C79.72 256 74.44 256 69 256 C69.03957157 261.22063275 69.03957157 261.22063275 69.09008789 266.44116211 C69.09723945 268.29433759 69.0502852 270.14749308 69 272 C68 273 68 273 64.85717773 273.02172852 C63.46581239 272.97940203 62.07461337 272.93137967 60.68359375 272.87890625 C59.95253922 272.85529526 59.22148468 272.83168427 58.46827698 272.80735779 C56.12449544 272.73054916 53.78103018 272.64659969 51.4375 272.5625 C49.85222922 272.50929648 48.26694282 272.45655598 46.68164062 272.40429688 C42.78755868 272.27491096 38.8937459 272.13911869 35 272 C35.33 272.66 35.66 273.32 36 274 C36.09663965 276.18576146 36.12980327 278.37460848 36.125 280.5625 C36.12757813 281.73941406 36.13015625 282.91632813 36.1328125 284.12890625 C36 287 36 287 35 288 C33.33207077 288.09831588 31.65995994 288.12631989 29.98913574 288.12698364 C28.36110268 288.13121338 28.36110268 288.13121338 26.70018005 288.13552856 C25.4991011 288.13350433 24.29802216 288.1314801 23.06054688 288.12939453 C21.80379654 288.13114685 20.5470462 288.13289917 19.25221252 288.13470459 C15.79569353 288.1392784 12.33920425 288.13748958 8.88268471 288.1343255 C5.27298525 288.13180163 1.66328842 288.13413952 -1.94641113 288.13571167 C-8.00936339 288.13753329 -14.07230349 288.13512726 -20.13525391 288.13037109 C-27.15450086 288.12492849 -34.17371878 288.12669115 -41.19296503 288.1321975 C-47.20908943 288.13672885 -53.22520507 288.13737907 -59.24133062 288.13475883 C-62.83907898 288.13319618 -66.43681367 288.13300196 -70.03456116 288.13629532 C-74.04324069 288.13970822 -78.0518698 288.13498393 -82.06054688 288.12939453 C-83.8621653 288.13243088 -83.8621653 288.13243088 -85.70018005 288.13552856 C-86.78553543 288.13270874 -87.87089081 288.12988892 -88.98913574 288.12698364 C-89.93820549 288.12660662 -90.88727524 288.12622959 -91.86510468 288.12584114 C-94 288 -94 288 -95 287 C-95.09935148 284.98049791 -95.12799508 282.95749085 -95.12939453 280.93554688 C-95.13254669 279.63750122 -95.13569885 278.33945557 -95.13894653 277.0020752 C-95.13715675 275.57429979 -95.1351058 274.14652469 -95.1328125 272.71875 C-95.13348558 271.26525862 -95.13445564 269.81176736 -95.13571167 268.35827637 C-95.13718846 265.30833873 -95.1350347 262.25843034 -95.13037109 259.20849609 C-95.1246738 255.29069441 -95.12795291 251.37296122 -95.13394356 247.45516205 C-95.13754969 244.45269246 -95.13641035 241.45023923 -95.13381577 238.44776917 C-95.13314664 237.00281262 -95.13397442 235.55785461 -95.13629532 234.11289978 C-95.13882265 232.09675117 -95.13429052 230.08059738 -95.12939453 228.06445312 C-95.12859894 226.91497192 -95.12780334 225.76549072 -95.12698364 224.58117676 C-95 222 -95 222 -94 221 C-91.65012738 220.76472227 -89.29443961 220.58613583 -86.9375 220.4375 C-85.64714844 220.35371094 -84.35679687 220.26992187 -83.02734375 220.18359375 C-82.02832031 220.12300781 -81.02929688 220.06242188 -80 220 C-79.97494385 219.09644775 -79.9498877 218.19289551 -79.92407227 217.26196289 C-79.82912683 213.9203572 -79.72988379 210.57893748 -79.62768555 207.23754883 C-79.5842837 205.7893576 -79.54261256 204.34111346 -79.50268555 202.89282227 C-79.44510938 200.81510441 -79.38137972 198.73765427 -79.31640625 196.66015625 C-79.27974854 195.40855713 -79.24309082 194.15695801 -79.20532227 192.86743164 C-79 190 -79 190 -78 189 C-75.04753646 188.90473194 -72.11851579 188.87447548 -69.16577148 188.88647461 C-67.77566864 188.88625557 -67.77566864 188.88625557 -66.35748291 188.8860321 C-63.27866313 188.88673162 -60.19990303 188.89452579 -57.12109375 188.90234375 C-54.99259982 188.90420779 -52.86410547 188.90563176 -50.73561096 188.90663147 C-45.1213768 188.91045772 -39.50716832 188.92028892 -33.89294434 188.93133545 C-28.16886747 188.94154727 -22.44478647 188.9461286 -16.72070312 188.95117188 C-5.48045744 188.96191109 5.75976915 188.9789888 17 189 C17 184.05 17 179.1 17 174 C21 173 21 173 33 174 C33 154.2 33 134.4 33 114 C27.72 114 22.44 114 17 114 C15.81775332 110.45325997 16.10670366 108.02477005 16.4375 104.3125 C16.53933594 103.13300781 16.64117187 101.95351562 16.74609375 100.73828125 C16.87177734 99.38283203 16.87177734 99.38283203 17 98 C16.40087296 98.01474869 15.80174591 98.02949738 15.1844635 98.04469299 C8.97214889 98.1966277 2.75969852 98.34149393 -3.45288086 98.48217773 C-5.77421284 98.53568563 -8.09550342 98.59102145 -10.41674805 98.64819336 C-13.74518907 98.72985982 -17.07372163 98.80504119 -20.40234375 98.87890625 C-21.44712387 98.90594131 -22.49190399 98.93297638 -23.56834412 98.96083069 C-24.52926468 98.98092697 -25.49018524 99.00102325 -26.48022461 99.02172852 C-27.33071884 99.04171402 -28.18121307 99.06169952 -29.05747986 99.08229065 C-31 99 -31 99 -32 98 C-32.08669432 96.5112814 -32.10703494 95.018555 -32.09765625 93.52734375 C-32.09443359 92.62822266 -32.09121094 91.72910156 -32.08789062 90.80273438 C-32.07532227 89.38444336 -32.07532227 89.38444336 -32.0625 87.9375 C-32.05798828 86.98810547 -32.05347656 86.03871094 -32.04882812 85.06054688 C-32.03700128 82.70700469 -32.01906521 80.35349468 -32 78 C-26.39 78 -20.78 78 -15 78 C-15 62.16 -15 46.32 -15 30 C-10.05 30 -5.1 30 0 30 C0 20.1 0 10.2 0 0 Z M3 17 C2.40626122 24.12486533 1.85185573 30.94978659 1.90234375 38.046875 C1.9037587 38.82895325 1.90517365 39.61103149 1.90663147 40.41680908 C1.91213117 42.86124871 1.92466273 45.3055891 1.9375 47.75 C1.94252803 49.42968616 1.94708862 51.10937378 1.95117188 52.7890625 C1.96206736 56.85941196 1.97925916 60.92968929 2 65 C0.92878906 64.98839844 -0.14242187 64.97679687 -1.24609375 64.96484375 C-2.64322743 64.95546701 -4.04036299 64.94636669 -5.4375 64.9375 C-6.14455078 64.92912109 -6.85160156 64.92074219 -7.58007812 64.91210938 C-9.38693559 64.90346412 -11.19387603 64.94779989 -13 65 C-14.33901792 66.11126659 -14.33901792 66.11126659 -14.09765625 68.94140625 C-14.08605469 70.13636719 -14.07445312 71.33132812 -14.0625 72.5625 C-14.041875 74.686875 -14.02125 76.81125 -14 79 C-19.61 79 -25.22 79 -31 79 C-31 79.33 -31 79.66 -31 80 C-14.83 80 1.34 80 18 80 C18 85.28 18 90.56 18 96 C23.28 96 28.56 96 34 96 C34 101.61 34 107.22 34 113 C41.92 112.505 41.92 112.505 50 112 C50 132.79 50 153.58 50 175 C45.38 174.67 40.76 174.34 36 174 C32.99630872 174.07473068 30.10306529 174.17892547 27.125 174.4375 C26.42503906 174.48970703 25.72507812 174.54191406 25.00390625 174.59570312 C23.33523148 174.7214252 21.66747352 174.85923925 20 175 C20 175.33 20 175.66 20 176 C24.62 176 29.24 176 34 176 C34 180.95 34 185.9 34 191 C26.5625 190.9375 26.5625 190.9375 24.21704102 190.90991211 C22.47778283 190.90275087 20.73854696 190.94975298 19 191 C18.67 191.33 18.34 191.66 18 192 C18 197.28 18 202.56 18 208 C-8.4 208 -34.8 208 -62 208 C-62 218.23 -62 228.46 -62 239 C-67.28 239 -72.56 239 -78 239 C-78 249.56 -78 260.12 -78 271 C-40.71 271 -3.42 271 35 271 C35 265.72 35 260.44 35 255 C45.23 255 55.46 255 66 255 C66 249.72 66 244.44 66 239 C71.61 239 77.22 239 83 239 C83.020625 236.73125 83.04125 234.4625 83.0625 232.125 C83.07990234 230.21074219 83.07990234 230.21074219 83.09765625 228.2578125 C83.23176569 225.11335348 83.23176569 225.11335348 82 223 C87.61 223 93.22 223 99 223 C99 213.1 99 203.2 99 193 C104.28 192.67 109.56 192.34 115 192 C115.02297289 183.89551865 115.04115137 175.79106435 115.05181217 167.68655872 C115.05693946 163.91968855 115.06384141 160.15284257 115.07543945 156.38598633 C115.13488285 136.56321073 114.83779813 116.80773904 114 97 C109.05 96.67 104.1 96.34 99 96 C99 85.77 99 75.54 99 65 C93.72 65 88.44 65 83 65 C83 59.72 83 54.44 83 49 C77.72 49 72.44 49 67 49 C67 43.72 67 38.44 67 33 C56.44 33 45.88 33 35 33 C35 27.72 35 22.44 35 17 C24.44 17 13.88 17 3 17 Z " fill="#010202" transform="translate(393,0)"/>
<path d="M0 0 C0.88300781 0.0169693 1.76601563 0.0339386 2.67578125 0.05142212 C4.17238281 0.07672501 4.17238281 0.07672501 5.69921875 0.10253906 C7.32730469 0.13838608 7.32730469 0.13838608 8.98828125 0.17495728 C10.64730469 0.20681625 10.64730469 0.20681625 12.33984375 0.23931885 C14.68364458 0.28567488 17.02739557 0.33461035 19.37109375 0.38589478 C22.97254902 0.46367999 26.574093 0.53082759 30.17578125 0.59683228 C32.44662771 0.64306697 34.71746166 0.68992109 36.98828125 0.73745728 C38.61636719 0.7672316 38.61636719 0.7672316 40.27734375 0.79760742 C41.77394531 0.83236679 41.77394531 0.83236679 43.30078125 0.86782837 C44.62529297 0.8956691 44.62529297 0.8956691 45.9765625 0.92407227 C47.98828125 1.08901978 47.98828125 1.08901978 48.98828125 2.08901978 C49.0812394 3.53191764 49.10574638 4.97931762 49.10180664 6.42520142 C49.10169334 7.80652 49.10169334 7.80652 49.10157776 9.21574402 C49.09641647 10.21677658 49.09125519 11.21780914 49.0859375 12.24917603 C49.08452255 13.26877914 49.0831076 14.28838226 49.08164978 15.33888245 C49.07603222 18.60979085 49.06347675 21.88063191 49.05078125 25.15151978 C49.04576851 27.36310733 49.04120521 29.57469596 49.03710938 31.7862854 C49.02605709 37.22055334 49.00930188 42.65478175 48.98828125 48.08901978 C50.05949219 48.00523071 51.13070312 47.92144165 52.234375 47.83511353 C53.63148991 47.73197081 55.02862649 47.62912135 56.42578125 47.52651978 C57.48635742 47.44240845 57.48635742 47.44240845 58.56835938 47.3565979 C60.37255962 47.22710984 62.18060077 47.1538037 63.98828125 47.08901978 C64.98828125 48.08901978 64.98828125 48.08901978 65.10853577 50.14543152 C65.10631516 51.04922043 65.10409454 51.95300934 65.10180664 52.88418579 C65.10169334 54.41566002 65.10169334 54.41566002 65.10157776 55.97807312 C65.09641647 57.08847458 65.09125519 58.19887604 65.0859375 59.34292603 C65.08452255 60.47350937 65.0831076 61.60409271 65.08164978 62.76893616 C65.07603144 66.39649043 65.06347583 70.02398401 65.05078125 73.65151978 C65.04576861 76.10399285 65.0412053 78.55646688 65.03710938 81.00894165 C65.02605605 87.03565523 65.00930009 93.06233317 64.98828125 99.08901978 C59.98828125 100.08901978 59.98828125 100.08901978 48.98828125 100.08901978 C48.98828125 131.43901978 48.98828125 162.78901978 48.98828125 195.08901978 C45.43193245 195.80028953 42.81642339 196.21485753 39.30566406 196.21841431 C38.40833557 196.22156647 37.51100708 196.22471863 36.58648682 196.22796631 C35.63111023 196.22594208 34.67573364 196.22391785 33.69140625 196.22183228 C32.20734283 196.22326736 32.20734283 196.22326736 30.69329834 196.22473145 C28.60884538 196.22541042 26.52439028 196.22357586 24.43994141 196.21939087 C21.23595495 196.21401587 18.03210724 196.21935707 14.828125 196.22573853 C12.80338511 196.22507814 10.7786453 196.2237978 8.75390625 196.22183228 C7.79043274 196.22385651 6.82695923 196.22588074 5.83428955 196.22796631 C4.50720978 196.22323807 4.50720978 196.22323807 3.15332031 196.21841431 C1.98014252 196.21722092 1.98014252 196.21722092 0.78326416 196.21600342 C-1.01171875 196.08901978 -1.01171875 196.08901978 -2.01171875 195.08901978 C-2.10698681 192.13655623 -2.13724327 189.20753556 -2.12524414 186.25479126 C-2.12539017 185.32805603 -2.12553619 184.4013208 -2.12568665 183.44650269 C-2.12498713 180.3676829 -2.11719296 177.2889228 -2.109375 174.21011353 C-2.10751096 172.0816196 -2.10608699 169.95312525 -2.10508728 167.82463074 C-2.10126103 162.21039657 -2.09142983 156.5961881 -2.0803833 150.98196411 C-2.07017148 145.25788724 -2.06559015 139.53380624 -2.06054688 133.8097229 C-2.04980766 122.56947721 -2.03272995 111.32925063 -2.01171875 100.08901978 C-2.94556396 100.09425659 -3.87940918 100.09949341 -4.84155273 100.10488892 C-8.29484671 100.12189597 -11.74809642 100.13445279 -15.20141602 100.14395142 C-16.69816793 100.14899098 -18.19491491 100.15582265 -19.69165039 100.16445923 C-21.83871682 100.17654136 -23.98571837 100.18225169 -26.1328125 100.18667603 C-28.07305298 100.19453125 -28.07305298 100.19453125 -30.05249023 100.20254517 C-33.01171875 100.08901978 -33.01171875 100.08901978 -34.01171875 99.08901978 C-34.11018842 97.52902929 -34.13970493 95.96461433 -34.14111328 94.40151978 C-34.14426544 93.4037854 -34.1474176 92.40605103 -34.15066528 91.37808228 C-34.14864105 90.29269165 -34.14661682 89.20730103 -34.14453125 88.08901978 C-34.14548798 86.98300415 -34.1464447 85.87698853 -34.14743042 84.73745728 C-34.14811242 82.3937067 -34.14625679 80.04995425 -34.14208984 77.70620728 C-34.13674189 74.1046019 -34.14203422 70.50312124 -34.1484375 66.90151978 C-34.14777672 64.63068616 -34.14649557 62.35985263 -34.14453125 60.08901978 C-34.14655548 59.00362915 -34.14857971 57.91823853 -34.15066528 56.79995728 C-34.14751312 55.8022229 -34.14436096 54.80448853 -34.14111328 53.77651978 C-34.14031769 52.89351196 -34.13952209 52.01050415 -34.13870239 51.10073853 C-34.01171875 49.08901978 -34.01171875 49.08901978 -33.01171875 48.08901978 C-30.72183094 47.93013885 -28.42728434 47.83763904 -26.1328125 47.77261353 C-25.44615005 47.75183243 -24.75948761 47.73105133 -24.05201721 47.7096405 C-21.8511894 47.64407834 -19.650239 47.58522962 -17.44921875 47.52651978 C-15.96027361 47.48334085 -14.47134102 47.43972677 -12.98242188 47.3956604 C-9.32565322 47.28839047 -5.66874557 47.18714205 -2.01171875 47.08901978 C-2.02646744 46.51494888 -2.04121613 45.94087799 -2.05641174 45.34941101 C-2.20835252 39.39662383 -2.35321737 33.44369486 -2.49389648 27.4906311 C-2.54740267 25.26630242 -2.60273838 23.04201698 -2.65991211 20.81777954 C-2.74158335 17.62833996 -2.81676263 14.43880478 -2.890625 11.24917603 C-2.91766006 10.24814346 -2.94469513 9.2471109 -2.97254944 8.21574402 C-2.99264572 7.29486496 -3.012742 6.3739859 -3.03344727 5.42520142 C-3.05343277 4.61023697 -3.07341827 3.79527252 -3.0940094 2.95561218 C-2.97756376 0.31428485 -2.63436638 0.11657231 0 0 Z " fill="#010101" transform="translate(476.01171875,361.9109802246094)"/>
<path d="M0 0 C7.10244999 -0.02526787 14.20488848 -0.04283201 21.30737305 -0.05493164 C23.72567172 -0.05997349 26.14396733 -0.06680678 28.56225586 -0.07543945 C32.02979283 -0.08751157 35.49728966 -0.09322963 38.96484375 -0.09765625 C40.05337143 -0.10281754 41.14189911 -0.10797882 42.26341248 -0.11329651 C43.76485558 -0.11340981 43.76485558 -0.11340981 45.29663086 -0.11352539 C46.62566689 -0.11685631 46.62566689 -0.11685631 47.98155212 -0.12025452 C50 0 50 0 51 1 C51.09654727 2.88561518 51.12187241 4.77489455 51.12025452 6.66297913 C51.12162918 7.89282028 51.12300385 9.12266144 51.12442017 10.38977051 C51.12088056 11.76513696 51.11724574 13.14050317 51.11352539 14.51586914 C51.11324352 15.95442198 51.11340124 17.39297496 51.1139679 18.83152771 C51.11425589 22.74871143 51.10835884 26.66586479 51.10139394 30.58304143 C51.09516074 34.67233837 51.09455663 38.76163593 51.09336853 42.85093689 C51.09025511 50.59992398 51.08204159 58.34889703 51.07201904 66.09787792 C51.06085822 74.91756209 51.05534753 83.73724691 51.05032361 92.55693638 C51.03985898 110.70463223 51.02225934 128.85231499 51 147 C47.66360323 147.69822813 44.62118919 148.12292339 41.2097168 148.11352539 C39.82885139 148.11341209 39.82885139 148.11341209 38.42008972 148.11329651 C36.94950859 148.10555458 36.94950859 148.10555458 35.44921875 148.09765625 C34.43527542 148.0962413 33.42133209 148.09482635 32.37666321 148.09336853 C29.14691179 148.08778328 25.91723038 148.07523345 22.6875 148.0625 C20.49414163 148.0574831 18.30078217 148.05292052 16.10742188 148.04882812 C10.73825747 148.03781868 5.36913374 148.0210952 0 148 C-1.02611663 144.6236977 -1.10988421 141.57189723 -1.08229065 138.05218506 C-1.07525116 136.83504822 -1.06821167 135.61791138 -1.06095886 134.3638916 C-1.04797736 133.01830962 -1.03489728 131.6727286 -1.02172852 130.32714844 C-1.01158239 128.90786035 -1.00188908 127.48856896 -0.99261475 126.0692749 C-0.96616717 122.21834945 -0.93338087 118.36750089 -0.89946485 114.51663494 C-0.86508871 110.4914435 -0.83653053 106.46621091 -0.80735779 102.440979 C-0.75123641 94.81956018 -0.68987535 87.19819288 -0.62663645 79.57683015 C-0.55489272 70.89978641 -0.48898311 62.22270143 -0.42356598 53.54560804 C-0.28887355 35.69701833 -0.14684668 17.84849365 0 0 Z " fill="#010102" transform="translate(154,410)"/>
<path d="M0 0 C1.46657043 -0.00472824 1.46657043 -0.00472824 2.96276855 -0.009552 C4.0262854 -0.00752777 5.08980225 -0.00550354 6.18554688 -0.00341797 C7.81127625 -0.00485306 7.81127625 -0.00485306 9.46984863 -0.00631714 C11.76652077 -0.00699912 14.06319482 -0.00514358 16.35986328 -0.00097656 C19.88904115 0.00437141 23.41809174 -0.00092097 26.94726562 -0.00732422 C29.17252632 -0.00666344 31.39778694 -0.00538228 33.62304688 -0.00341797 C34.68656372 -0.0054422 35.75008057 -0.00746643 36.8458252 -0.009552 C37.82353882 -0.00639984 38.80125244 -0.00324768 39.80859375 0 C40.67383667 0.00079559 41.53907959 0.00159119 42.43054199 0.00241089 C44.40429688 0.12939453 44.40429688 0.12939453 45.40429688 1.12939453 C45.50084415 3.01500971 45.52616929 4.90428908 45.52455139 6.79237366 C45.52592606 8.02221481 45.52730072 9.25205597 45.52871704 10.51916504 C45.52517743 11.89453149 45.52154262 13.2698977 45.51782227 14.64526367 C45.5175404 16.08381651 45.51769812 17.52236949 45.51826477 18.96092224 C45.51855277 22.87810596 45.51265571 26.79525932 45.50569081 30.71243596 C45.49945762 34.8017329 45.4988535 38.89103046 45.49766541 42.98033142 C45.49455199 50.72931851 45.48633846 58.47829156 45.47631592 66.22727245 C45.4651551 75.04695662 45.45964441 83.86664145 45.45462048 92.68633091 C45.44415586 110.83402676 45.42655622 128.98170952 45.40429688 147.12939453 C42.10926115 147.81756105 39.09033089 148.25537626 35.72167969 148.25878906 C34.8243512 148.26194122 33.92702271 148.26509338 33.00250244 148.26834106 C32.04712585 148.26631683 31.09174927 148.2642926 30.10742188 148.26220703 C28.62335846 148.26364212 28.62335846 148.26364212 27.10931396 148.2651062 C25.024861 148.26578518 22.9404059 148.26395062 20.85595703 148.25976562 C17.65197058 148.25439063 14.44812286 148.25973182 11.24414062 148.26611328 C9.21940073 148.2654529 7.19466092 148.26417256 5.16992188 148.26220703 C4.20644836 148.26423126 3.24297485 148.26625549 2.25030518 148.26834106 C0.9232254 148.26361282 0.9232254 148.26361282 -0.43066406 148.25878906 C-1.60384186 148.25759567 -1.60384186 148.25759567 -2.80072021 148.25637817 C-4.59570312 148.12939453 -4.59570312 148.12939453 -5.59570312 147.12939453 C-5.69443593 145.24608906 -5.722025 143.35903616 -5.72268677 141.47314453 C-5.72550659 140.24474854 -5.72832642 139.01635254 -5.73123169 137.75073242 C-5.7292871 136.37695298 -5.72723891 135.00317368 -5.72509766 133.62939453 C-5.72645166 132.19246374 -5.72823158 130.7555333 -5.73040771 129.31860352 C-5.73498218 125.40548865 -5.73319244 121.49240002 -5.73002863 117.57928467 C-5.7275051 113.49312263 -5.72984255 109.40696291 -5.73141479 105.32080078 C-5.73323651 98.45751541 -5.73083013 91.59424078 -5.72607422 84.73095703 C-5.72063159 76.78467447 -5.72239425 68.83841756 -5.72790062 60.89213562 C-5.7324317 54.08196289 -5.73308233 47.2717979 -5.73046196 40.46162415 C-5.72889915 36.38879984 -5.72870551 32.31598761 -5.73199844 28.24316406 C-5.73487708 24.41503696 -5.73290162 20.58694308 -5.72710419 16.75881958 C-5.72577655 15.34986425 -5.72617077 13.94090615 -5.72836685 12.5319519 C-5.73107816 10.6165171 -5.72708371 8.70107621 -5.72268677 6.78564453 C-5.72230974 5.71121094 -5.72193272 4.63677734 -5.72154427 3.52978516 C-5.50189145 -0.66004154 -3.7309818 0.00343065 0 0 Z " fill="#010101" transform="translate(383.595703125,409.87060546875)"/>
<path d="M0 0 C1.46657043 -0.00472824 1.46657043 -0.00472824 2.96276855 -0.009552 C4.0262854 -0.00752777 5.08980225 -0.00550354 6.18554688 -0.00341797 C7.81127625 -0.00485306 7.81127625 -0.00485306 9.46984863 -0.00631714 C11.76652077 -0.00699912 14.06319482 -0.00514358 16.35986328 -0.00097656 C19.88904115 0.00437141 23.41809174 -0.00092097 26.94726562 -0.00732422 C29.17252632 -0.00666344 31.39778694 -0.00538228 33.62304688 -0.00341797 C34.68656372 -0.0054422 35.75008057 -0.00746643 36.8458252 -0.009552 C37.82353882 -0.00639984 38.80125244 -0.00324768 39.80859375 0 C40.67383667 0.00079559 41.53907959 0.00159119 42.43054199 0.00241089 C44.40429688 0.12939453 44.40429688 0.12939453 45.40429688 1.12939453 C45.49749137 2.66422423 45.52175488 4.20331536 45.51782227 5.7409668 C45.51774673 6.72190811 45.5176712 7.70284943 45.51759338 8.71351624 C45.5124321 9.78017014 45.50727081 10.84682404 45.50195312 11.94580078 C45.50053818 13.03199203 45.49912323 14.11818329 45.49766541 15.23728943 C45.49204736 18.72218528 45.4794918 22.20701795 45.46679688 25.69189453 C45.4617842 28.0480134 45.45722089 30.40413327 45.453125 32.76025391 C45.44207207 38.54998917 45.42531638 44.33968734 45.40429688 50.12939453 C42.12134848 50.86101136 39.08306775 51.25538362 35.72167969 51.25878906 C34.8243512 51.26194122 33.92702271 51.26509338 33.00250244 51.26834106 C32.04712585 51.26631683 31.09174927 51.2642926 30.10742188 51.26220703 C28.62335846 51.26364212 28.62335846 51.26364212 27.10931396 51.2651062 C25.024861 51.26578518 22.9404059 51.26395062 20.85595703 51.25976562 C17.65197058 51.25439063 14.44812286 51.25973182 11.24414062 51.26611328 C9.21940073 51.2654529 7.19466092 51.26417256 5.16992188 51.26220703 C4.20644836 51.26423126 3.24297485 51.26625549 2.25030518 51.26834106 C0.9232254 51.26361282 0.9232254 51.26361282 -0.43066406 51.25878906 C-1.60384186 51.25759567 -1.60384186 51.25759567 -2.80072021 51.25637817 C-4.59570312 51.12939453 -4.59570312 51.12939453 -5.59570312 50.12939453 C-5.69409526 48.60004823 -5.72368851 47.06619888 -5.72509766 45.53369141 C-5.72824982 44.55597778 -5.73140198 43.57826416 -5.73464966 42.57092285 C-5.73262543 41.50740601 -5.7306012 40.44388916 -5.72851562 39.34814453 C-5.72947235 38.26432495 -5.73042908 37.18050537 -5.73141479 36.06384277 C-5.73209678 33.76717064 -5.73024124 31.47049658 -5.72607422 29.17382812 C-5.72072624 25.64465025 -5.72601863 22.11559966 -5.73242188 18.58642578 C-5.7317611 16.36116508 -5.73047994 14.13590446 -5.72851562 11.91064453 C-5.73053986 10.84712769 -5.73256409 9.78361084 -5.73464966 8.68786621 C-5.7314975 7.71015259 -5.72834534 6.73243896 -5.72509766 5.72509766 C-5.72430206 4.85985474 -5.72350647 3.99461182 -5.72268677 3.10314941 C-5.47686444 -0.71776012 -3.30925773 0.00304287 0 0 Z " fill="#000101" transform="translate(383.595703125,346.87060546875)"/>
<path d="M0 0 C0.71353638 0.00202423 1.42707275 0.00404846 2.16223145 0.00613403 C2.89091431 0.00517731 3.61959717 0.00422058 4.37036133 0.00323486 C5.91377855 0.00255318 7.45719861 0.00440666 9.00061035 0.00857544 C11.37095544 0.01392391 13.74111104 0.00863011 16.1114502 0.00222778 C17.60754437 0.00288857 19.10363842 0.00416973 20.59973145 0.00613403 C21.31326782 0.0041098 22.0268042 0.00208557 22.76196289 0 C27.76602953 0.02399462 27.76602953 0.02399462 28.88098145 1.13894653 C28.97417594 2.67377623 28.99843945 4.21286736 28.99450684 5.7505188 C28.9944313 6.73146011 28.99435577 7.71240143 28.99427795 8.72306824 C28.98911667 9.78972214 28.98395538 10.85637604 28.9786377 11.95535278 C28.97722275 13.04154404 28.9758078 14.12773529 28.97434998 15.24684143 C28.96873193 18.73173728 28.95617637 22.21656995 28.94348145 25.70144653 C28.93846877 28.0575654 28.93390546 30.41368527 28.92980957 32.76980591 C28.91875664 38.55954118 28.90200096 44.34923934 28.88098145 50.13894653 C24.86929646 50.99726969 21.1947837 51.2678377 17.08410645 51.27175903 C15.79633301 51.2730481 14.50855957 51.27433716 13.1817627 51.27566528 C12.51741211 51.27357056 11.85306152 51.27147583 11.1685791 51.26931763 C9.1234203 51.2639266 7.07847755 51.26929714 5.0333252 51.27566528 C3.10939941 51.27373169 3.10939941 51.27373169 1.14660645 51.27175903 C-0.03127441 51.2706311 -1.20915527 51.26950317 -2.42272949 51.26834106 C-5.11901855 51.13894653 -5.11901855 51.13894653 -6.11901855 50.13894653 C-6.21741069 48.60960023 -6.24700394 47.07575088 -6.24841309 45.54324341 C-6.25156525 44.56552979 -6.25471741 43.58781616 -6.25796509 42.58047485 C-6.25594086 41.51695801 -6.25391663 40.45344116 -6.25183105 39.35769653 C-6.25278778 38.27387695 -6.25374451 37.19005737 -6.25473022 36.07339478 C-6.25541221 33.77672264 -6.25355667 31.48004859 -6.24938965 29.18338013 C-6.24404167 25.65420226 -6.24933406 22.12515166 -6.2557373 18.59597778 C-6.25507653 16.37071708 -6.25379537 14.14545646 -6.25183105 11.92019653 C-6.25385529 10.85667969 -6.25587952 9.79316284 -6.25796509 8.69741821 C-6.25481293 7.71970459 -6.25166077 6.74199097 -6.24841309 5.73464966 C-6.24761749 4.86940674 -6.2468219 4.00416382 -6.2460022 3.11270142 C-5.98735716 -0.90751643 -3.42812473 0.01643794 0 0 Z " fill="#000101" transform="translate(160.1190185546875,346.8610534667969)"/>
<path d="M0 0 C4.95 0 9.9 0 15 0 C15.06058594 2.14242187 15.12117187 4.28484375 15.18359375 6.4921875 C15.24537815 8.56400095 15.30876788 10.63575947 15.37231445 12.70751953 C15.41566231 14.1488762 15.45733752 15.59028418 15.49731445 17.03173828 C15.55502088 19.10204541 15.61871371 21.17209432 15.68359375 23.2421875 C15.72025146 24.4885498 15.75690918 25.73491211 15.79467773 27.01904297 C15.80289479 29.92636942 15.80289479 29.92636942 17 32 C11.39 32 5.78 32 0 32 C0 21.44 0 10.88 0 0 Z " fill="#010201" transform="translate(139,65)"/>
<path d="M0 0 C46.2 0 92.4 0 140 0 C140.33 0.99 140.66 1.98 141 3 C94.47 2.67 47.94 2.34 0 2 C0 1.34 0 0.68 0 0 Z " fill="#11121A" transform="translate(0,347)"/>
<path d="M0 0 C32.01 0 64.02 0 97 0 C97 0.66 97 1.32 97 2 C48.49 2.495 48.49 2.495 -1 3 C-0.67 2.01 -0.34 1.02 0 0 Z " fill="#12120F" transform="translate(315,189)"/>
<path d="M0 0 C10.56 0 21.12 0 32 0 C32 0.33 32 0.66 32 1 C22.1 1 12.2 1 2 1 C2 5.95 2 10.9 2 16 C-3.28 16 -8.56 16 -14 16 C-14 21.28 -14 26.56 -14 32 C-9.05 32 -4.1 32 1 32 C1 32.33 1 32.66 1 33 C-9.48670989 33.89571109 -19.51069502 33.97960463 -30 33 C-30 33.66 -30 34.32 -30 35 C-30.99 34.67 -31.98 34.34 -33 34 C-32.67 33.01 -32.34 32.02 -32 31 C-26.72 31 -21.44 31 -16 31 C-16 25.39 -16 19.78 -16 14 C-10.72 14 -5.44 14 0 14 C0 9.38 0 4.76 0 0 Z " fill="#0C100F" transform="translate(185,16)"/>
<path d="M0 0 C0.33 0 0.66 0 1 0 C1 7.92 1 15.84 1 24 C2.65 23.34 4.3 22.68 6 22 C6 21.01 6 20.02 6 19 C6.99 19 7.98 19 9 19 C9.33 18.01 9.66 17.02 10 16 C10.66 16.33 11.32 16.66 12 17 C12 17.99 12 18.98 12 20 C12.99 20.33 13.98 20.66 15 21 C16 24 16 24 16 27 C15 29 15 29 13 30 C13 30.33 13 30.66 13 31 C6.565 31.495 6.565 31.495 0 32 C0 21.44 0 10.88 0 0 Z " fill="#1C8735" transform="translate(156,191)"/>
<path d="M0 0 C2.63590651 -0.25662756 5.02971397 -0.31944829 7.66259766 -0.2487793 C8.84809456 -0.23480606 8.84809456 -0.23480606 10.05754089 -0.22055054 C12.67681141 -0.18610211 15.29517139 -0.13022271 17.9140625 -0.07421875 C19.72722419 -0.04619439 21.54040694 -0.01950306 23.35360718 0.00590515 C28.13131575 0.07645089 32.9085231 0.16515468 37.68585205 0.25756836 C42.55862437 0.34863876 47.43165212 0.42263694 52.3046875 0.49804688 C61.87012051 0.64860099 71.43511097 0.81832784 81 1 C81 1.99 81 2.98 81 4 C39.915 3.505 39.915 3.505 -2 3 C-1.34 2.01 -0.68 1.02 0 0 Z " fill="#0C0C08" transform="translate(588,409)"/>
<path d="M0 0 C0 0.99 0 1.98 0 3 C-27.06 2.67 -54.12 2.34 -82 2 C-82 1.34 -82 0.68 -82 0 C-71.75157371 -0.15375605 -61.50308353 -0.30193759 -51.25447369 -0.4429636 C-46.49585743 -0.50862058 -41.73728489 -0.5762119 -36.97875977 -0.64819336 C-32.38823208 -0.71756288 -27.79765912 -0.78189118 -23.20701027 -0.84269524 C-21.45387002 -0.86680766 -19.70075397 -0.89274969 -17.94766808 -0.92053413 C-15.49599364 -0.9590807 -13.04431453 -0.99117528 -10.5925293 -1.02172852 C-9.50064552 -1.04114754 -9.50064552 -1.04114754 -8.38670349 -1.06095886 C-5.29485738 -1.0935002 -2.96005441 -0.9866848 0 0 Z " fill="#121216" transform="translate(126,426)"/>
<path d="M0 0 C1.39120471 0.00015906 2.78241534 0.00585033 4.17358398 0.01586914 C4.90463852 0.01728409 5.63569305 0.01869904 6.38890076 0.02015686 C8.73253406 0.02577131 11.07607313 0.03832617 13.41967773 0.05102539 C15.00496282 0.05603853 16.59024939 0.06060176 18.17553711 0.06469727 C22.06945383 0.07574542 25.96329979 0.09301967 29.85717773 0.11352539 C30.35217773 1.59852539 30.35217773 1.59852539 30.85717773 3.11352539 C19.96717773 2.78352539 9.07717773 2.45352539 -2.14282227 2.11352539 C-2.14282227 18.28352539 -2.14282227 34.45352539 -2.14282227 51.11352539 C-2.80282227 50.78352539 -3.46282227 50.45352539 -4.14282227 50.11352539 C-4.16809064 43.15349092 -4.18565449 36.19346819 -4.19775391 29.23339844 C-4.20279568 26.86360227 -4.20962892 24.49380924 -4.21826172 22.12402344 C-4.23033416 18.725985 -4.23605197 15.32798754 -4.24047852 11.92993164 C-4.2456398 10.86327774 -4.25080109 9.79662384 -4.25611877 8.69764709 C-4.25619431 7.71670578 -4.25626984 6.73576447 -4.25634766 5.72509766 C-4.25856827 4.85683853 -4.26078888 3.98857941 -4.26307678 3.0940094 C-4.06083606 -0.23671391 -3.41358734 0.123306 0 0 Z " fill="#040409" transform="translate(158.142822265625,346.886474609375)"/>
<path d="M0 0 C16.17 0 32.34 0 49 0 C49 0.66 49 1.32 49 2 C32.5 2.33 16 2.66 -1 3 C-0.67 2.01 -0.34 1.02 0 0 Z " fill="#0D0E17" transform="translate(379,347)"/>
<path d="M0 0 C5.61 0 11.22 0 17 0 C17 4.95 17 9.9 17 15 C21.95 15 26.9 15 32 15 C32.495 16.485 32.495 16.485 33 18 C27.06 17.67 21.12 17.34 15 17 C15 11.72 15 6.44 15 1 C10.05 1 5.1 1 0 1 C0 0.67 0 0.34 0 0 Z " fill="#121315" transform="translate(332,427)"/>
<path d="M0 0 C0.66 0.33 1.32 0.66 2 1 C2 4.3 2 7.6 2 11 C2.99 11 3.98 11 5 11 C5.33 10.34 5.66 9.68 6 9 C5.67 10.32 5.34 11.64 5 13 C4.34 13 3.68 13 3 13 C3 14.65 3 16.3 3 18 C2.34 18 1.68 18 1 18 C0.67 27.9 0.34 37.8 0 48 C-0.33 48 -0.66 48 -1 48 C-1.02500545 43.09277707 -1.04300225 38.18559248 -1.05493164 33.27832031 C-1.05991292 31.61425123 -1.06670037 29.95018641 -1.07543945 28.28613281 C-1.12393667 18.80350027 -1.0400008 9.44090921 0 0 Z " fill="#156D29" transform="translate(396,17)"/>
<path d="M0 0 C10.89 0 21.78 0 33 0 C33.495 1.485 33.495 1.485 34 3 C23.11 2.67 12.22 2.34 1 2 C1 2.66 1 3.32 1 4 C0.34 4 -0.32 4 -1 4 C-0.67 2.68 -0.34 1.36 0 0 Z " fill="#11131A" transform="translate(155,347)"/>
<path d="M0 0 C5.61 0.33 11.22 0.66 17 1 C17 1.66 17 2.32 17 3 C1.04413902 4.46961877 -14.99477279 4.09464518 -31 4 C-31 3.67 -31 3.34 -31 3 C-20.77 3 -10.54 3 0 3 C0 2.01 0 1.02 0 0 Z " fill="#0D180F" transform="translate(459,29)"/>
<path d="M0 0 C0.33 0 0.66 0 1 0 C1.05423638 1.91635217 1.09289963 3.83314925 1.125 5.75 C1.14820313 6.81734375 1.17140625 7.8846875 1.1953125 8.984375 C1 12 1 12 -1 16 C-5.62 16 -10.24 16 -15 16 C-15 16.66 -15 17.32 -15 18 C-15.66 18 -16.32 18 -17 18 C-17 16.35 -17 14.7 -17 13 C-12.05 13 -7.1 13 -2 13 C-1.855625 11.040625 -1.71125 9.08125 -1.5625 7.0625 C-1.125 1.125 -1.125 1.125 0 0 Z " fill="#0F1F0C" transform="translate(395,17)"/>
<path d="M0 0 C0.66 0 1.32 0 2 0 C2 4.29 2 8.58 2 13 C12.23 13 22.46 13 33 13 C33 13.33 33 13.66 33 14 C22.77 14 12.54 14 2 14 C1.67 15.32 1.34 16.64 1 18 C0.67 18 0.34 18 0 18 C0 12.06 0 6.12 0 0 Z " fill="#22A63F" transform="translate(426,20)"/>
<path d="M0 0 C6.27 0 12.54 0 19 0 C18.67 0.99 18.34 1.98 18 3 C16.86820313 3.06058594 15.73640625 3.12117188 14.5703125 3.18359375 C13.08852855 3.26799917 11.6067584 3.35264717 10.125 3.4375 C9.00544922 3.49647461 9.00544922 3.49647461 7.86328125 3.55664062 C3.80013136 3.71573624 3.80013136 3.71573624 0 5 C0 3.35 0 1.7 0 0 Z " fill="#0E0E0D" transform="translate(569,425)"/>
<path d="M0 0 C9.9 0 19.8 0 30 0 C30 0.33 30 0.66 30 1 C19.11 1.495 19.11 1.495 8 2 C8 2.33 8 2.66 8 3 C5.36 3 2.72 3 0 3 C0 2.01 0 1.02 0 0 Z " fill="#146E2B" transform="translate(230,18)"/>
<path d="M0 0 C0.33 0.66 0.66 1.32 1 2 C5.95 2 10.9 2 16 2 C16 2.66 16 3.32 16 4 C10.39 4 4.78 4 -1 4 C-0.67 2.68 -0.34 1.36 0 0 Z " fill="#111115" transform="translate(668,424)"/>
<path d="M0 0 C5.28 0 10.56 0 16 0 C16 0.66 16 1.32 16 2 C7.585 2.495 7.585 2.495 -1 3 C-0.67 2.01 -0.34 1.02 0 0 Z " fill="#161715" transform="translate(555,442)"/>
<path d="M0 0 C0 0.66 0 1.32 0 2 C-5.28 2 -10.56 2 -16 2 C-10.07835964 -0.96082018 -6.52694785 -1.15181433 0 0 Z " fill="#15151B" transform="translate(316,221)"/>
<path d="M0 0 C0 0.66 0 1.32 0 2 C-4.95 2 -9.9 2 -15 2 C-15 1.34 -15 0.68 -15 0 C-12.87562788 -0.19448477 -10.75046809 -0.38038289 -8.625 -0.5625 C-7.44164062 -0.66691406 -6.25828125 -0.77132813 -5.0390625 -0.87890625 C-2 -1 -2 -1 0 0 Z " fill="#100F0C" transform="translate(539,410)"/>
<path d="M0 0 C0.66 0.66 1.32 1.32 2 2 C5.08347826 2.16681109 5.08347826 2.16681109 8 2 C6 4 6 4 2 5 C1.67 8.63 1.34 12.26 1 16 C0.67 16 0.34 16 0 16 C0 10.72 0 5.44 0 0 Z " fill="#176E2C" transform="translate(219,17)"/>
</svg>
